<?xml version="1.0" encoding="UTF-8" standalone="no"?>
<svg width="59px" height="388px" viewBox="0 0 59 388" version="1.1" xmlns="http://www.w3.org/2000/svg" xmlns:xlink="http://www.w3.org/1999/xlink">
    <!-- Generator: Sketch 46.2 (44496) - http://www.bohemiancoding.com/sketch -->
    <title>bc_sprite</title>
    <desc>Created with Sketch.</desc>
    <defs></defs>
    <g id="Page-1" stroke="none" stroke-width="1" fill="none" fill-rule="evenodd">
        <g id="bc_sprite">
            <g id="Calendar" transform="translate(5.000000, 5.000000)" fill="#9C9CDD">
                <g id="Rectangle-path">
                    <path d="M31.2,2.40909091 C31.2,1.07858674 32.2745166,0 33.6,0 C34.9254834,0 36,1.07858674 36,2.40909091 L36,12.0454545 C36,13.3759587 34.9254834,14.4545455 33.6,14.4545455 C32.2745166,14.4545455 31.2,13.3759587 31.2,12.0454545 L31.2,2.40909091 Z M12,2.40909091 C12,1.07858674 13.0745166,0 14.4,0 C15.7254834,0 16.8,1.07858674 16.8,2.40909091 L16.8,12.0454545 C16.8,13.3759587 15.7254834,14.4545455 14.4,14.4545455 C13.0745166,14.4545455 12,13.3759587 12,12.0454545 L12,2.40909091 Z M2.4,24.0909091 C1.0745166,24.0909091 0,23.0123224 0,21.6818182 C0,20.351314 1.0745166,19.2727273 2.4,19.2727273 L45.6,19.2727273 C46.9254834,19.2727273 48,20.351314 48,21.6818182 C48,23.0123224 46.9254834,24.0909091 45.6,24.0909091 L2.4,24.0909091 Z M7.2,9.63636364 C5.8745166,9.63636364 4.8,10.7149504 4.8,12.0454545 L4.8,45.7727273 C4.8,47.1032314 5.8745166,48.1818182 7.2,48.1818182 L40.8,48.1818182 C42.1254834,48.1818182 43.2,47.1032314 43.2,45.7727273 L43.2,12.0454545 C43.2,10.7149504 42.1254834,9.63636364 40.8,9.63636364 L7.2,9.63636364 Z M7.2,4.81818182 L40.8,4.81818182 C44.7764502,4.81818182 48,8.05394204 48,12.0454545 L48,45.7727273 C48,49.7642398 44.7764502,53 40.8,53 L7.2,53 C3.2235498,53 0,49.7642398 0,45.7727273 L0,12.0454545 C0,8.05394204 3.2235498,4.81818182 7.2,4.81818182 Z" fill-rule="nonzero"></path>
                </g>
            </g>
            <g id="heart-white" transform="translate(-4.000000, 56.000000)" stroke="#FFFFFF" stroke-width="2">
                <path d="M41.1558324,57.0925367 L10.1015154,57.0925367 L10.1015154,25.7242211 C10.1020348,25.6495966 10.1015154,25.5748461 10.1015154,25.4999731 C10.1015154,16.8378519 17.0532611,9.81581531 25.6286739,9.81581531 C34.2040868,9.81581531 41.1558324,16.8378519 41.1558324,25.4999731 C41.1558324,25.5748457 41.155313,25.6495958 41.1542777,25.7242199 C49.7312452,25.7242211 56.6829909,32.7462577 56.6829909,41.4083789 C56.6829909,50.0705 49.7312452,57.0925367 41.1558324,57.0925367 Z" id="Combined-Shape" transform="translate(33.392253, 33.454176) rotate(-45.000000) translate(-33.392253, -33.454176) "></path>
                <path d="M53.302271,36.7409178 C53.1786293,35.9592261 52.9911465,35.1992636 52.7454381,34.466744 M51.8297598,32.3393726 C49.9203604,28.7535687 46.5114206,26.1151682 42.4586608,25.2948848" id="Oval-Copy" stroke-linecap="round" transform="translate(47.880466, 31.017901) rotate(11.000000) translate(-47.880466, -31.017901) "></path>
            </g>
            <g id="heart-default" transform="translate(-4.000000, 111.000000)" stroke="#9C9CDD" stroke-width="2">
                <path d="M41.1558324,57.0925367 L10.1015154,57.0925367 L10.1015154,25.7242211 C10.1020348,25.6495966 10.1015154,25.5748461 10.1015154,25.4999731 C10.1015154,16.8378519 17.0532611,9.81581531 25.6286739,9.81581531 C34.2040868,9.81581531 41.1558324,16.8378519 41.1558324,25.4999731 C41.1558324,25.5748457 41.155313,25.6495958 41.1542777,25.7242199 C49.7312452,25.7242211 56.6829909,32.7462577 56.6829909,41.4083789 C56.6829909,50.0705 49.7312452,57.0925367 41.1558324,57.0925367 Z" id="Combined-Shape" transform="translate(33.392253, 33.454176) rotate(-45.000000) translate(-33.392253, -33.454176) "></path>
                <path d="M56.302271,35.7409178 C56.1786293,34.9592261 55.9911465,34.1992636 55.7454381,33.466744 M54.8297598,31.3393726 C52.9203604,27.7535687 49.5114206,25.1151682 45.4586608,24.2948848" id="Oval-Copy" stroke-linecap="round" transform="translate(50.880466, 30.017901) rotate(11.000000) translate(-50.880466, -30.017901) "></path>
            </g>
            <g id="heart-default-copy" transform="translate(29.000000, 219.000000) rotate(-180.000000) translate(-29.000000, -219.000000) translate(8.000000, 198.000000)" stroke="#9C9CDD" stroke-width="2">
                <polyline id="Combined-Shape" stroke-linecap="round" transform="translate(20.486313, 15.470998) rotate(-45.000000) translate(-20.486313, -15.470998) " points="30.3165971 25.4006784 10.6560293 25.4006784 10.6560293 5.54131725 10.6560293 5.54131725"></polyline>
                <circle id="Oval-2" cx="21" cy="21" r="21"></circle>
            </g>
            <g id="location" transform="translate(8.000000, 255.000000)" stroke="#9C9CDD" stroke-linecap="round" stroke-linejoin="round">
                <g transform="translate(3.909091, 3.862069)" id="Group-2">
                    <g stroke-width="2">
                        <path d="M17.5909091,46.4752936 C5.86363636,36.0894657 0,26.3908046 0,17.3793103 C1.44767625e-07,7.78098238 7.87571837,2.58971904e-07 17.5909091,2.58971905e-07 C27.3060998,2.58971905e-07 35.181818,7.78098238 35.1818182,17.3793103 C35.1818182,26.3908046 29.3181818,36.0894657 17.5909091,46.4752936 Z M17.5909091,23.1724138 C20.829306,23.1724138 23.4545455,20.578753 23.4545455,17.3793103 C23.4545455,14.1798677 20.829306,11.5862069 17.5909091,11.5862069 C14.3525121,11.5862069 11.7272727,14.1798677 11.7272727,17.3793103 C11.7272727,20.578753 14.3525121,23.1724138 17.5909091,23.1724138 Z" id="Combined-Shape"></path>
                    </g>
                </g>
            </g>
            <g id="location" transform="translate(9.000000, 323.000000)" stroke-linecap="round" stroke-width="2" stroke="#FFFFFF" stroke-linejoin="round">
                <g id="Group-2">
                    <path d="M20,52.948638 C6.66666667,41.1162127 0,30.0666667 0,19.8 C1.64593682e-07,8.86476207 8.95430512,2.95042991e-07 20,2.95042992e-07 C31.0456949,2.95042992e-07 39.9999998,8.86476207 40,19.8 C40,30.0666667 33.3333333,41.1162127 20,52.948638 Z M20,26.4 C23.6818983,26.4 26.6666667,23.4450793 26.6666667,19.8 C26.6666667,16.1549207 23.6818983,13.2 20,13.2 C16.3181017,13.2 13.3333333,16.1549207 13.3333333,19.8 C13.3333333,23.4450793 16.3181017,26.4 20,26.4 Z" id="Combined-Shape"></path>
                </g>
            </g>
        </g>
    </g>
</svg>