<?xml version="1.0" encoding="UTF-8" standalone="no"?>
<svg width="20px" height="27px" viewBox="0 0 20 27" version="1.1" xmlns="http://www.w3.org/2000/svg" xmlns:xlink="http://www.w3.org/1999/xlink">
    <!-- Generator: Sketch 46.2 (44496) - http://www.bohemiancoding.com/sketch -->
    <title>location-white</title>
    <desc>Created with Sketch.</desc>
    <defs></defs>
    <g id="Page-1" stroke="none" stroke-width="1" fill="none" fill-rule="evenodd" stroke-linecap="round" stroke-linejoin="round">
        <g id="bc" transform="translate(-229.000000, -2785.000000)" stroke="#FFFFFF">
            <g id="location-white" transform="translate(229.000000, 2784.000000)">
                <g id="location" transform="translate(1.818182, 2.000000)">
                    <g id="Group-2" stroke-width="2">
                        <path d="M8.18181818,25 C2.72727273,19 0,13.6666667 0,9 C6.7333779e-08,4.0294373 3.66312482,1.34110451e-07 8.18181818,1.34110451e-07 C12.7005115,1.34110451e-07 16.3636363,4.0294373 16.3636364,9 C16.3636364,13.6666667 13.6363636,19 8.18181818,25 Z M8.18181818,12 C9.68804932,12 10.9090909,10.6568542 10.9090909,9 C10.9090909,7.34314575 9.68804932,6 8.18181818,6 C6.67558705,6 5.45454545,7.34314575 5.45454545,9 C5.45454545,10.6568542 6.67558705,12 8.18181818,12 Z" id="Combined-Shape"></path>
                    </g>
                </g>
            </g>
        </g>
    </g>
</svg>