<?xml version="1.0" encoding="UTF-8"?>
<svg width="700px" height="700px" viewBox="0 0 700 700" version="1.1" xmlns="http://www.w3.org/2000/svg" xmlns:xlink="http://www.w3.org/1999/xlink">
    <!-- Generator: Sketch 59.1 (86144) - https://sketch.com -->
    <title>logo-BarrigaCrescente</title>
    <desc>Created with Sketch.</desc>
    <g id="logo-BarrigaCrescente" stroke="none" stroke-width="1" fill="none" fill-rule="evenodd">
        <g id="logo-copy" transform="translate(92.000000, 86.000000)" fill="#9C9CDD">
            <path d="M22.4404,407.4596 C22.4404,407.4596 69.9754,376.1946 29.9754,192.1946 C29.9754,192.1946 3.9754,8.1946 167.0384,37.1776 C263.8824,54.3906 217.0384,188.1776 127.0384,189.1776 C127.0384,189.1776 173.5384,213.6776 232.5384,157.6776 C232.5384,157.6776 325.9754,148.1946 395.9754,230.1946 C469.7974,316.6726 409.9754,498.1946 203.9754,480.1946 C203.9754,480.1946 49.9754,456.1946 59.9754,306.1946 C59.9754,306.1946 9.9754,508.1946 245.9754,526.1946 C534.1374,536.6096 552.5384,139.6776 244.5384,128.6776 C244.5384,128.6776 277.9754,-5.8054 129.9754,0.1946 C129.9754,0.1946 -38.0246,-1.8054 7.9754,212.1946 C39.9754,308.1946 37.9754,328.1946 22.4404,407.4596" id="B"></path>
            <path d="M370.6602,306.195 C370.6602,313.21 367.6682,318.896 363.9752,318.896 C360.2842,318.896 357.2912,313.21 357.2912,306.195 C357.2912,299.18 360.2842,293.494 363.9752,293.494 C367.6682,293.494 370.6602,299.18 370.6602,306.195" id="umbigo"></path>
            <g id="logo-text" transform="translate(296.000000, 77.000000)">
                <path d="M9.123,17.7807 L13.96,18.5557 C19.592,19.4587 23.368,17.0507 24.006,13.0707 C24.781,8.2347 21.412,5.7477 16.025,4.8847 C13.576,4.4917 12.139,4.4507 11.252,4.4967 L9.123,17.7807 Z M5.954,37.5537 C6.966,37.9047 8.486,38.2117 10.384,38.5147 C15.894,39.3977 21.299,38.1927 22.26,32.1927 C23.163,26.5607 18.699,23.4607 12.884,22.5277 L8.476,21.8217 L5.954,37.5537 Z M6.505,0.0307 C8.91,-0.0863 12.642,0.1357 16.376,0.7337 C21.702,1.5877 24.983,3.0547 27.221,5.5487 C29.108,7.4837 30.002,10.1377 29.481,13.3837 C28.844,17.3627 25.652,20.4297 21.051,21.3257 L21.031,21.4477 C24.792,23.0547 28.863,27.0347 27.882,33.1577 C27.313,36.7087 25.474,39.1757 23.068,40.8627 C19.769,43.0337 14.92,43.5117 8.186,42.4327 C4.514,41.8437 1.736,41.1477 0,40.6187 L6.505,0.0307 Z" id="Fill-1"></path>
                <path d="M52.2852,36.3227 C46.5982,34.5617 39.8102,33.7137 38.2042,39.3157 C37.2292,42.7127 39.0332,44.9717 41.7152,45.7407 C45.4702,46.8177 48.5382,45.1167 50.0732,42.9127 C50.4052,42.4267 50.6952,41.8647 50.8492,41.3297 L52.2852,36.3227 Z M48.8392,51.2657 L49.4642,47.5107 L49.2852,47.4597 C47.0262,49.2627 43.3462,50.4007 39.2332,49.2217 C33.3922,47.5467 31.5922,42.5797 32.7882,38.4077 C34.7882,31.4347 42.0802,29.3977 53.2082,32.6527 L53.3792,32.0557 C54.0622,29.6737 54.6382,25.1927 48.7372,23.5017 C46.0552,22.7317 43.0142,22.7627 40.6122,23.4937 L40.4112,19.6947 C43.2392,18.8297 46.9872,18.8067 50.6232,19.8487 C59.4432,22.3787 59.8632,29.0127 58.2052,34.7947 L55.1122,45.5837 C54.3942,48.0857 53.8122,50.5637 53.6062,52.6337 L48.8392,51.2657 Z" id="Fill-3"></path>
                <path d="M69.043,36.3823 C70.35,33.0973 71.415,30.2513 72.273,27.5903 L76.71,29.3553 L74.705,34.8983 L74.936,34.9883 C77.693,31.7473 81.687,30.6013 85.086,31.9523 C85.662,32.1813 86.043,32.4003 86.458,32.6983 L84.556,37.4813 C84.083,37.1593 83.587,36.8963 82.896,36.6203 C79.323,35.1983 75.711,36.8993 73.507,40.4273 C73.117,41.0713 72.681,41.8333 72.337,42.6963 L66.424,57.5623 L61.411,55.5683 L69.043,36.3823 Z" id="Fill-5"></path>
                <path d="M89.6045,45.0776 C91.1965,41.9216 92.5085,39.1816 93.5995,36.6056 L97.8625,38.7566 L95.3755,44.0986 L95.5965,44.2106 C98.6295,41.2266 102.7085,40.4366 105.9745,42.0846 C106.5285,42.3636 106.8875,42.6146 107.2755,42.9486 L104.9575,47.5436 C104.5145,47.1816 104.0445,46.8746 103.3805,46.5396 C99.9485,44.8076 96.2005,46.1816 93.6925,49.5006 C93.2475,50.1086 92.7455,50.8276 92.3265,51.6576 L85.1225,65.9406 L80.3055,63.5116 L89.6045,45.0776 Z" id="Fill-7"></path>
                <path d="M123.6885,43.6049 C122.7685,45.2219 120.8285,45.7789 118.9785,44.6439 C117.3395,43.6389 116.9545,41.6579 117.9265,40.0719 C118.9315,38.4329 120.9245,37.9099 122.6165,38.9469 C124.3605,40.0169 124.6925,41.9659 123.6885,43.6049 L123.6885,43.6049 Z M98.4145,73.1989 L114.1005,47.6169 L118.7515,50.4679 L103.0655,76.0509 L98.4145,73.1989 Z" id="Fill-9"></path>
                <path d="M137.9922,79.1987 C138.5732,78.4727 139.0292,77.8057 139.3022,77.0697 C140.5062,73.9817 140.0552,70.2827 136.9592,67.8007 C132.8962,64.5427 127.2402,65.6497 122.8952,71.0667 C119.2112,75.6617 118.4692,81.3447 123.0632,85.0307 C125.6762,87.1247 129.3642,87.3807 132.4562,85.4097 C133.2792,84.8777 134.0352,84.1327 134.6172,83.4077 L137.9922,79.1987 Z M149.8022,73.4897 C148.3472,75.1047 146.7382,76.9137 144.4492,79.7677 L133.5512,93.3597 C129.2452,98.7287 125.5432,101.1657 121.6402,101.3737 C117.6602,101.6787 113.8282,99.7187 110.8782,97.3517 C108.0722,95.1027 105.5192,91.9427 104.6412,89.1737 L108.3052,86.7847 C109.0762,88.9937 110.7972,91.8037 113.6992,94.1317 C118.0532,97.6227 123.0682,97.9087 127.8002,92.0077 L129.8942,89.3957 L129.7982,89.3177 C126.7462,90.4467 122.8352,90.1717 119.2072,87.2627 C113.4022,82.6077 113.1992,74.3387 118.3962,67.8567 C124.7582,59.9247 133.5412,59.5757 138.9102,63.8817 C142.9722,67.1397 143.4912,71.0527 142.9562,73.8017 L143.0532,73.8787 L146.0772,70.5037 L149.8022,73.4897 Z" id="Fill-11"></path>
                <path d="M159.2002,105.0854 C155.3932,100.5094 150.1682,96.0954 145.7652,99.9144 C143.0962,102.2314 143.3772,105.1064 145.2052,107.2144 C147.7642,110.1654 151.2632,110.4124 153.7522,109.4014 C154.2962,109.1774 154.8462,108.8644 155.2662,108.4994 L159.2002,105.0854 Z M148.1622,115.7314 L150.7342,112.9244 L150.6122,112.7844 C147.7352,113.0644 144.0302,112.0104 141.2262,108.7784 C137.2442,104.1894 138.4442,99.0444 141.7212,96.2004 C147.2012,91.4454 154.4242,93.7154 161.9752,102.5134 L162.4442,102.1064 C164.3172,100.4814 167.2422,97.0404 163.2192,92.4044 C161.3902,90.2974 158.8252,88.6654 156.4132,87.9664 L158.3162,84.6734 C161.1602,85.4894 164.3122,87.5154 166.7912,90.3724 C172.8052,97.3024 169.5382,103.0934 164.9962,107.0344 L156.5192,114.3894 C154.5532,116.0954 152.7142,117.8554 151.4132,119.4784 L148.1622,115.7314 Z" id="Fill-13"></path>
                <path d="M172.3281,150.9311 C170.4761,149.7091 167.6331,146.7701 165.0891,142.3681 C159.1941,132.1691 161.2001,120.7701 173.0631,113.9141 C184.3911,107.3681 196.5031,110.6091 202.9861,121.8281 C205.5921,126.3371 206.2691,129.7421 206.3391,131.3481 L201.8761,132.4231 C201.7111,130.1561 200.8971,127.2601 199.1601,124.2531 C194.2591,115.7731 185.5801,113.2691 176.0791,118.7601 C167.2221,123.8781 164.4781,132.2671 169.5651,141.0701 C171.2101,143.9151 173.4751,146.4721 175.4741,147.8241 L172.3281,150.9311 Z" id="Fill-15"></path>
                <path d="M192.4355,150.3198 C195.7315,149.0448 198.5415,147.8888 201.0765,146.7088 L202.7995,151.1598 L197.3735,153.4608 L197.4635,153.6908 C201.7145,153.5078 205.2715,155.6548 206.5915,159.0658 C206.8155,159.6438 206.9145,160.0718 206.9785,160.5788 L202.1795,162.4368 C202.0935,161.8708 201.9505,161.3288 201.6815,160.6338 C200.2925,157.0498 196.5905,155.5578 192.5065,156.3408 C191.7685,156.4958 190.9145,156.6928 190.0465,157.0288 L175.1305,162.8038 L173.1825,157.7738 L192.4355,150.3198 Z" id="Fill-17"></path>
                <path d="M202.0527,190.3374 C205.4367,189.5604 210.3127,186.8164 208.8317,180.8584 C207.5007,175.5044 201.9847,174.3844 198.2097,174.8744 L202.0527,190.3374 Z M194.4047,175.7574 C187.2747,177.6564 185.4627,182.9624 186.7787,188.2574 C187.7207,192.0474 188.9507,194.1694 190.2857,195.9444 L186.7207,197.7894 C185.4147,196.1344 183.6587,193.1844 182.5077,188.5524 C180.2807,179.5874 184.8457,172.7674 193.6287,170.5834 C202.4127,168.4004 210.6177,171.8554 212.7267,180.3384 C215.0897,189.8444 207.3547,194.4494 201.9997,195.7804 C200.9167,196.0504 200.0447,196.1384 199.4887,196.2134 L194.4047,175.7574 Z" id="Fill-19"></path>
                <path d="M192.2012,205.0942 C191.3562,206.8252 190.6062,209.7942 190.9472,212.5002 C191.4432,216.4372 193.6442,218.0342 196.1042,217.7242 C198.6872,217.3992 199.9092,215.6832 200.8812,211.4982 C202.1132,205.9072 204.7482,203.0132 208.3152,202.5642 C213.1132,201.9582 217.5382,205.3372 218.3452,211.7352 C218.7232,214.7482 218.1962,217.5022 217.4222,219.2862 L213.3142,218.4302 C213.9052,217.1682 214.6182,214.8912 214.2692,212.1232 C213.8662,208.9252 211.7962,207.3742 209.5822,207.6532 C207.1212,207.9622 206.2392,209.8862 205.2512,213.9472 C203.9342,219.3622 201.6842,222.3322 197.2562,222.8902 C192.0272,223.5492 187.8252,219.9542 186.9332,212.8812 C186.5232,209.6212 186.9422,206.5072 187.9092,204.2612 L192.2012,205.0942 Z" id="Fill-21"></path>
                <path d="M190.8271,252.31 C190.0611,250.896 189.0201,247.748 188.9591,243.719 C188.8211,234.667 194.8691,228.684 204.0451,228.544 C213.2821,228.403 220.0741,234.624 220.2231,244.42 C220.2721,247.644 219.5111,250.508 218.7891,252.007 L214.5551,250.831 C215.2781,249.518 215.9301,247.462 215.8841,244.487 C215.7791,237.605 210.6391,233.962 204.3771,234.058 C197.4331,234.164 193.2231,238.693 193.3141,244.645 C193.3611,247.745 194.1991,249.778 194.9041,251.318 L190.8271,252.31 Z" id="Fill-23"></path>
                <path d="M205.0264,279.2895 C208.4694,279.7435 213.9974,278.8765 214.6914,272.7775 C215.3164,267.2955 210.5394,264.3175 206.8314,263.4585 L205.0264,279.2895 Z M202.9574,262.9545 C195.6124,262.2425 192.0604,266.5805 191.4434,272.0005 C191.0014,275.8815 191.4114,278.2995 192.0424,280.4315 L188.0564,280.9125 C187.4114,278.9045 186.7974,275.5275 187.3384,270.7845 C188.3834,261.6055 195.0464,256.8105 204.0394,257.8365 C213.0334,258.8605 219.5124,264.9655 218.5234,273.6515 C217.4144,283.3845 208.5574,284.9955 203.0754,284.3705 C201.9654,284.2445 201.1184,284.0225 200.5704,283.8975 L202.9574,262.9545 Z" id="Fill-25"></path>
                <path d="M206.4004,294.9965 C209.3884,295.8195 211.8554,296.4345 214.2964,296.9145 L213.0114,301.5765 L208.1474,300.5585 L208.1154,300.6775 C210.4684,302.8695 212.2364,306.9575 210.9204,311.7385 C209.8164,315.7435 205.7134,321.3015 195.7924,318.5675 L178.5184,313.8095 L179.9674,308.5505 L196.6424,313.1425 C201.3044,314.4275 205.6674,313.7645 207.0344,308.8045 C207.9894,305.3375 206.2794,301.9725 203.5974,300.2685 C203.0054,299.8495 202.1424,299.4825 201.2464,299.2355 L183.8534,294.4445 L185.3014,289.1845 L206.4004,294.9965 Z" id="Fill-27"></path>
                <path d="M208.2725,342.8862 L200.3345,339.5322 L197.2935,346.7292 L193.4675,345.1132 L196.5065,337.9162 L181.6005,331.6192 C178.1735,330.1722 175.8215,330.3232 174.6395,333.1212 C174.0845,334.4352 173.8455,335.4792 173.7515,336.1792 L169.8855,334.8162 C169.8965,333.6762 170.2615,332.0132 171.0825,330.0712 C172.0715,327.7302 173.6095,326.1582 175.4875,325.5372 C177.5755,324.7382 180.2485,325.2612 183.5035,326.6362 L198.5825,333.0042 L200.3905,328.7212 L204.2175,330.3372 L202.4085,334.6202 L209.0335,337.4192 L208.2725,342.8862 Z" id="Fill-29"></path>
                <path d="M173.3262,365.7153 C176.3102,367.4893 181.7322,368.8713 184.7752,363.5403 C187.5112,358.7473 184.2932,354.1273 181.2232,351.8763 L173.3262,365.7153 Z M177.8622,349.8863 C171.3922,346.3373 166.4182,348.9233 163.7142,353.6623 C161.7782,357.0553 161.2022,359.4393 160.9422,361.6463 L157.0892,360.5183 C157.2882,358.4183 158.0552,355.0723 160.4212,350.9263 C165.0002,342.9033 173.0132,341.1223 180.8742,345.6093 C188.7362,350.0953 192.2852,358.2603 187.9522,365.8533 C183.0972,374.3613 174.3212,372.3513 169.5292,369.6163 C168.5592,369.0633 167.8672,368.5253 167.4132,368.1943 L177.8622,349.8863 Z" id="Fill-31"></path>
            </g>
        </g>
    </g>
</svg>